{
  "accessors": [
    {
      "bufferView": 2,
      "componentType": 5126,
      "count": 1197,
      "max": [
        556.62255859375,
        7252.26953125,
        532.7222290039063
      ],
      "min": [
        -468.8021545410156,
        0.0,
        -531.8301391601563
      ],
      "type": "VEC3"
    },
    {
      "bufferView": 2,
      "byteOffset": 14364,
      "componentType": 5126,
      "count": 1197,
      "max": [
        0.998624324798584,
        0.9941461086273193,
        0.9985028505325317
      ],
      "min": [
        -0.9996438026428223,
        -0.9883663058280945,
        -0.999683141708374
      ],
      "type": "VEC3"
    },
    {
      "bufferView": 1,
      "componentType": 5126,
      "count": 1197,
      "max": [
        -0.0014600000577047467,
        18.485780715942383
      ],
      "min": [
        -0.9995099902153015,
        0.0
      ],
      "type": "VEC2"
    },
    {
      "bufferView": 1,
      "byteOffset": 9576,
      "componentType": 5126,
      "count": 1197,
      "max": [
        0.9811205863952637,
        0.9980080723762512
      ],
      "min": [
        0.001958324806764722,
        0.0019920491613447666
      ],
      "type": "VEC2"
    },
    {
      "bufferView": 0,
      "componentType": 5125,
      "count": 2643,
      "type": "SCALAR"
    },
    {
      "bufferView": 2,
      "byteOffset": 28728,
      "componentType": 5126,
      "count": 1680,
      "max": [
        1286.201416015625,
        7200.73779296875,
        1367.26513671875
      ],
      "min": [
        -1320.2921142578125,
        1614.140380859375,
        -1322.2928466796875
      ],
      "type": "VEC3"
    },
    {
      "bufferView": 2,
      "byteOffset": 48888,
      "componentType": 5126,
      "count": 1680,
      "max": [
        0.9853261709213257,
        0.8726078271865845,
        0.9765690565109253
      ],
      "min": [
        -0.9686635732650757,
        -0.9993916749954224,
        -0.978056788444519
      ],
      "type": "VEC3"
    },
    {
      "bufferView": 1,
      "byteOffset": 19152,
      "componentType": 5126,
      "count": 1680,
      "max": [
        1.000100016593933,
        -0.0
      ],
      "min": [
        9.999999747378752e-05,
        -1.0
      ],
      "type": "VEC2"
    },
    {
      "bufferView": 1,
      "byteOffset": 32592,
      "componentType": 5126,
      "count": 1680,
      "max": [
        0.9811207056045532,
        0.9884827136993408
      ],
      "min": [
        0.001958324806764722,
        0.00199203216470778
      ],
      "type": "VEC2"
    },
    {
      "bufferView": 0,
      "byteOffset": 10572,
      "componentType": 5125,
      "count": 1680,
      "type": "SCALAR"
    }
  ],
  "asset": {
    "extras": {
      "author": "Next Spring (https://sketchfab.com/NextSpring)",
      "license": "CC-BY-4.0 (http://creativecommons.org/licenses/by/4.0/)",
      "source": "https://sketchfab.com/3d-models/realistic-pine-tree-models-f73f36fec0cc40bda89238504b2a5b51",
      "title": "Realistic Pine Tree Models"
    },
    "generator": "Sketchfab-15.44.0",
    "version": "2.0"
  },
  "bufferViews": [
    {
      "buffer": 0,
      "byteLength": 17292,
      "name": "floatBufferViews",
      "target": 34963
    },
    {
      "buffer": 0,
      "byteLength": 46032,
      "byteOffset": 17292,
      "byteStride": 8,
      "name": "floatBufferViews",
      "target": 34962
    },
    {
      "buffer": 0,
      "byteLength": 69048,
      "byteOffset": 63324,
      "byteStride": 12,
      "name": "floatBufferViews",
      "target": 34962
    }
  ],
  "buffers": [
    {
      "byteLength": 132372,
      "uri": "scene.bin"
    }
  ],
  "extensionsUsed": [
    "KHR_materials_specular"
  ],
  "images": [
    {
      "uri": "textures/Pine_Trunk_baseColor.png"
    },
    {
      "uri": "textures/Pine_Leaf_baseColor.png"
    }
  ],
  "materials": [
    {
      "doubleSided": true,
      "extensions": {
        "KHR_materials_specular": {
          "specularColorFactor": [
            1.0,
            1.0,
            1.0
          ],
          "specularFactor": 0.0
        }
      },
      "name": "Pine_Trunk",
      "pbrMetallicRoughness": {
        "baseColorTexture": {
          "index": 0
        },
        "metallicFactor": 0.0,
        "roughnessFactor": 0.6
      }
    },
    {
      "alphaCutoff": 0.302,
      "alphaMode": "MASK",
      "doubleSided": true,
      "extensions": {
        "KHR_materials_specular": {
          "specularColorFactor": [
            1.0,
            1.0,
            1.0
          ],
          "specularFactor": 0.0
        }
      },
      "name": "Pine_Leaf",
      "pbrMetallicRoughness": {
        "baseColorTexture": {
          "index": 1
        },
        "metallicFactor": 0.0,
        "roughnessFactor": 0.6
      }
    }
  ],
  "meshes": [
    {
      "name": "Pine_1_13_Pine_Trunk_0",
      "primitives": [
        {
          "attributes": {
            "NORMAL": 1,
            "POSITION": 0,
            "TEXCOORD_0": 2,
            "TEXCOORD_1": 3
          },
          "indices": 4,
          "material": 0,
          "mode": 4
        }
      ]
    },
    {
      "name": "Pine_1_13_Pine_Leaf_0",
      "primitives": [
        {
          "attributes": {
            "NORMAL": 6,
            "POSITION": 5,
            "TEXCOORD_0": 7,
            "TEXCOORD_1": 8
          },
          "indices": 9,
          "material": 1,
          "mode": 4
        }
      ]
    }
  ],
  "nodes": [
    {
      "children": [
        1
      ],
      "matrix": [
        1.0,
        0.0,
        0.0,
        0.0,
        0.0,
        2.220446049250313e-16,
        -1.0,
        0.0,
        0.0,
        1.0,
        2.220446049250313e-16,
        0.0,
        0.0,
        0.0,
        0.0,
        1.0
      ],
      "name": "Sketchfab_model"
    },
    {
      "children": [
        2
      ],
      "matrix": [
        0.009999999776482582,
        0.0,
        0.0,
        0.0,
        0.0,
        0.0,
        0.009999999776482582,
        0.0,
        0.0,
        -0.009999999776482582,
        0.0,
        0.0,
        0.0,
        0.0,
        0.0,
        1.0
      ],
      "name": "Pine_Tree_Models.fbx"
    },
    {
      "children": [
        3
      ],
      "name": "RootNode"
    },
    {
      "children": [
        4
      ],
      "name": "Pine_Tree_Models"
    },
    {
      "children": [
        5,
        6
      ],
      "matrix": [
        1.0,
        0.0,
        0.0,
        0.0,
        0.0,
        1.0,
        0.0,
        0.0,
        0.0,
        0.0,
        1.0,
        0.0,
        170.0000762939453,
        0.0,
        -23179.998046875,
        1.0
      ],
      "name": "Pine_1_13"
    },
    {
      "mesh": 0,
      "name": "Pine_1_13_Pine_Trunk_0"
    },
    {
      "mesh": 1,
      "name": "Pine_1_13_Pine_Leaf_0"
    }
  ],
  "samplers": [
    {
      "magFilter": 9729,
      "minFilter": 9987,
      "wrapS": 10497,
      "wrapT": 10497
    }
  ],
  "scene": 0,
  "scenes": [
    {
      "name": "Sketchfab_Scene",
      "nodes": [
        0
      ]
    }
  ],
  "textures": [
    {
      "sampler": 0,
      "source": 0
    },
    {
      "sampler": 0,
      "source": 1
    }
  ]
}
